<mxfile host="app.diagrams.net" modified="2021-10-02T12:04:15.008Z" agent="5.0 (Windows)" etag="PSmhrTClk4kA37nSbiWu" version="15.4.1" type="github" pages="2">
  <diagram id="-m9qqsBfXarH8WXp_uyf" name="Page-1">
    <mxGraphModel dx="1038" dy="575" grid="1" gridSize="10" guides="1" tooltips="1" connect="1" arrows="1" fold="1" page="1" pageScale="1" pageWidth="850" pageHeight="1100" math="0" shadow="0">
      <root>
        <mxCell id="0" />
        <mxCell id="1" parent="0" />
        <mxCell id="6R6mG-xF9waBvt92QYjW-3" value="" style="edgeStyle=orthogonalEdgeStyle;rounded=0;orthogonalLoop=1;jettySize=auto;html=1;entryX=0.5;entryY=0;entryDx=0;entryDy=0;" parent="1" source="6R6mG-xF9waBvt92QYjW-1" target="6R6mG-xF9waBvt92QYjW-8" edge="1">
          <mxGeometry relative="1" as="geometry">
            <mxPoint x="425" y="105" as="targetPoint" />
          </mxGeometry>
        </mxCell>
        <mxCell id="6R6mG-xF9waBvt92QYjW-1" value="&lt;div&gt;mulai&lt;/div&gt;" style="strokeWidth=2;html=1;shape=mxgraph.flowchart.terminator;whiteSpace=wrap;" parent="1" vertex="1">
          <mxGeometry x="375.5" y="20" width="100" height="30" as="geometry" />
        </mxCell>
        <mxCell id="6R6mG-xF9waBvt92QYjW-5" value="" style="edgeStyle=orthogonalEdgeStyle;rounded=0;orthogonalLoop=1;jettySize=auto;html=1;exitX=0.5;exitY=1;exitDx=0;exitDy=0;" parent="1" source="6R6mG-xF9waBvt92QYjW-8" target="6R6mG-xF9waBvt92QYjW-4" edge="1">
          <mxGeometry relative="1" as="geometry">
            <mxPoint x="425" y="165" as="sourcePoint" />
          </mxGeometry>
        </mxCell>
        <mxCell id="6R6mG-xF9waBvt92QYjW-9" style="edgeStyle=orthogonalEdgeStyle;rounded=0;orthogonalLoop=1;jettySize=auto;html=1;exitX=1;exitY=0.5;exitDx=0;exitDy=0;entryX=0;entryY=0.5;entryDx=0;entryDy=0;" parent="1" source="6R6mG-xF9waBvt92QYjW-4" target="6R6mG-xF9waBvt92QYjW-7" edge="1">
          <mxGeometry relative="1" as="geometry" />
        </mxCell>
        <mxCell id="6R6mG-xF9waBvt92QYjW-14" value="" style="edgeStyle=orthogonalEdgeStyle;rounded=0;orthogonalLoop=1;jettySize=auto;html=1;" parent="1" source="6R6mG-xF9waBvt92QYjW-4" target="6R6mG-xF9waBvt92QYjW-13" edge="1">
          <mxGeometry relative="1" as="geometry" />
        </mxCell>
        <mxCell id="6R6mG-xF9waBvt92QYjW-4" value="nextNum &amp;lt; 13" style="rhombus;whiteSpace=wrap;html=1;strokeWidth=2;" parent="1" vertex="1">
          <mxGeometry x="367.5" y="200" width="115" height="80" as="geometry" />
        </mxCell>
        <mxCell id="6R6mG-xF9waBvt92QYjW-6" value="&lt;div&gt;berhenti&lt;/div&gt;" style="strokeWidth=2;html=1;shape=mxgraph.flowchart.terminator;whiteSpace=wrap;" parent="1" vertex="1">
          <mxGeometry x="660" y="210" width="100" height="60" as="geometry" />
        </mxCell>
        <mxCell id="6R6mG-xF9waBvt92QYjW-10" style="edgeStyle=orthogonalEdgeStyle;rounded=0;orthogonalLoop=1;jettySize=auto;html=1;exitX=1;exitY=0.5;exitDx=0;exitDy=0;entryX=0;entryY=0.5;entryDx=0;entryDy=0;entryPerimeter=0;" parent="1" source="6R6mG-xF9waBvt92QYjW-7" target="6R6mG-xF9waBvt92QYjW-6" edge="1">
          <mxGeometry relative="1" as="geometry">
            <mxPoint x="660" y="240" as="targetPoint" />
          </mxGeometry>
        </mxCell>
        <mxCell id="6R6mG-xF9waBvt92QYjW-7" value="print total" style="shape=parallelogram;html=1;strokeWidth=2;perimeter=parallelogramPerimeter;whiteSpace=wrap;rounded=1;arcSize=12;size=0.23;" parent="1" vertex="1">
          <mxGeometry x="520" y="210" width="100" height="60" as="geometry" />
        </mxCell>
        <mxCell id="6R6mG-xF9waBvt92QYjW-8" value="&lt;div&gt;prevNum = 0&lt;/div&gt;&lt;div&gt;currentNum= 0&lt;/div&gt;&lt;div&gt;nextNum=0&lt;/div&gt;&lt;div&gt;total= 0&lt;/div&gt;" style="rounded=1;whiteSpace=wrap;html=1;absoluteArcSize=1;arcSize=14;strokeWidth=2;" parent="1" vertex="1">
          <mxGeometry x="375" y="90" width="100" height="70" as="geometry" />
        </mxCell>
        <mxCell id="6R6mG-xF9waBvt92QYjW-20" style="edgeStyle=orthogonalEdgeStyle;rounded=0;orthogonalLoop=1;jettySize=auto;html=1;exitX=0.5;exitY=1;exitDx=0;exitDy=0;entryX=0.5;entryY=0;entryDx=0;entryDy=0;" parent="1" source="6R6mG-xF9waBvt92QYjW-13" target="6R6mG-xF9waBvt92QYjW-27" edge="1">
          <mxGeometry relative="1" as="geometry">
            <mxPoint x="425.5" y="445" as="targetPoint" />
          </mxGeometry>
        </mxCell>
        <mxCell id="6R6mG-xF9waBvt92QYjW-25" style="edgeStyle=orthogonalEdgeStyle;rounded=0;orthogonalLoop=1;jettySize=auto;html=1;exitX=1;exitY=0.5;exitDx=0;exitDy=0;entryX=0;entryY=0.5;entryDx=0;entryDy=0;" parent="1" source="6R6mG-xF9waBvt92QYjW-13" target="6R6mG-xF9waBvt92QYjW-24" edge="1">
          <mxGeometry relative="1" as="geometry" />
        </mxCell>
        <mxCell id="6R6mG-xF9waBvt92QYjW-13" value="nextNum == 0" style="rhombus;whiteSpace=wrap;html=1;strokeWidth=2;" parent="1" vertex="1">
          <mxGeometry x="368" y="305" width="115" height="80" as="geometry" />
        </mxCell>
        <mxCell id="6R6mG-xF9waBvt92QYjW-15" value="&lt;div&gt;&lt;b&gt;T&lt;/b&gt;&lt;/div&gt;" style="text;html=1;align=center;verticalAlign=middle;resizable=0;points=[];autosize=1;strokeColor=none;fillColor=none;" parent="1" vertex="1">
          <mxGeometry x="400" y="280" width="20" height="20" as="geometry" />
        </mxCell>
        <mxCell id="6R6mG-xF9waBvt92QYjW-16" value="&lt;b&gt;F&lt;/b&gt;" style="text;html=1;align=center;verticalAlign=middle;resizable=0;points=[];autosize=1;strokeColor=none;fillColor=none;" parent="1" vertex="1">
          <mxGeometry x="490" y="215" width="20" height="20" as="geometry" />
        </mxCell>
        <mxCell id="6R6mG-xF9waBvt92QYjW-21" value="&lt;div&gt;&lt;b&gt;T&lt;/b&gt;&lt;/div&gt;" style="text;html=1;align=center;verticalAlign=middle;resizable=0;points=[];autosize=1;strokeColor=none;fillColor=none;" parent="1" vertex="1">
          <mxGeometry x="400" y="390" width="20" height="20" as="geometry" />
        </mxCell>
        <mxCell id="6R6mG-xF9waBvt92QYjW-24" value="&lt;div&gt;nextNum = &lt;br&gt;&lt;/div&gt;&lt;div&gt;currentNum + prevNum &lt;/div&gt;" style="rounded=1;whiteSpace=wrap;html=1;absoluteArcSize=1;arcSize=14;strokeWidth=2;align=center;" parent="1" vertex="1">
          <mxGeometry x="550" y="322.5" width="140" height="45" as="geometry" />
        </mxCell>
        <mxCell id="6R6mG-xF9waBvt92QYjW-26" value="&lt;b&gt;F&lt;/b&gt;" style="text;html=1;align=center;verticalAlign=middle;resizable=0;points=[];autosize=1;strokeColor=none;fillColor=none;" parent="1" vertex="1">
          <mxGeometry x="490" y="322.5" width="20" height="20" as="geometry" />
        </mxCell>
        <mxCell id="6R6mG-xF9waBvt92QYjW-30" style="edgeStyle=orthogonalEdgeStyle;rounded=0;orthogonalLoop=1;jettySize=auto;html=1;exitX=0.5;exitY=1;exitDx=0;exitDy=0;entryX=0.5;entryY=0;entryDx=0;entryDy=0;" parent="1" source="6R6mG-xF9waBvt92QYjW-27" target="6R6mG-xF9waBvt92QYjW-29" edge="1">
          <mxGeometry relative="1" as="geometry" />
        </mxCell>
        <mxCell id="6R6mG-xF9waBvt92QYjW-27" value="prevNum = 0&lt;br&gt;&lt;div&gt;nextNum = 1&lt;br&gt;&lt;/div&gt;" style="rounded=1;whiteSpace=wrap;html=1;absoluteArcSize=1;arcSize=14;strokeWidth=2;align=center;" parent="1" vertex="1">
          <mxGeometry x="358" y="410" width="135" height="45" as="geometry" />
        </mxCell>
        <mxCell id="6R6mG-xF9waBvt92QYjW-31" style="edgeStyle=orthogonalEdgeStyle;rounded=0;orthogonalLoop=1;jettySize=auto;html=1;exitX=0;exitY=0.5;exitDx=0;exitDy=0;entryX=0;entryY=0.5;entryDx=0;entryDy=0;" parent="1" source="6R6mG-xF9waBvt92QYjW-29" target="6R6mG-xF9waBvt92QYjW-4" edge="1">
          <mxGeometry relative="1" as="geometry" />
        </mxCell>
        <mxCell id="6R6mG-xF9waBvt92QYjW-29" value="&lt;div&gt;&lt;br&gt;&lt;/div&gt;&lt;div&gt;&lt;div&gt;total = total + &quot;, nextNum&quot;&lt;/div&gt;&lt;/div&gt;&lt;div align=&quot;left&quot;&gt;&lt;div align=&quot;left&quot;&gt;prevNum = currentNum  &lt;div align=&quot;left&quot;&gt;currentNum = nextNum &lt;/div&gt;&lt;/div&gt;&lt;/div&gt;&lt;div&gt;&lt;br&gt;&lt;/div&gt;" style="rounded=1;whiteSpace=wrap;html=1;absoluteArcSize=1;arcSize=14;strokeWidth=2;align=center;" parent="1" vertex="1">
          <mxGeometry x="349.5" y="540" width="152" height="70" as="geometry" />
        </mxCell>
        <mxCell id="6R6mG-xF9waBvt92QYjW-43" style="edgeStyle=orthogonalEdgeStyle;rounded=0;orthogonalLoop=1;jettySize=auto;html=1;exitX=0.5;exitY=1;exitDx=0;exitDy=0;entryX=1;entryY=0.5;entryDx=0;entryDy=0;" parent="1" source="6R6mG-xF9waBvt92QYjW-24" target="6R6mG-xF9waBvt92QYjW-29" edge="1">
          <mxGeometry relative="1" as="geometry">
            <mxPoint x="620" y="464.9999999999999" as="sourcePoint" />
          </mxGeometry>
        </mxCell>
      </root>
    </mxGraphModel>
  </diagram>
  <diagram id="QYvs4H2cqD5_qCNk_26K" name="Page-2">
    <mxGraphModel dx="1038" dy="575" grid="1" gridSize="10" guides="1" tooltips="1" connect="1" arrows="1" fold="1" page="1" pageScale="1" pageWidth="850" pageHeight="1100" math="0" shadow="0">
      <root>
        <mxCell id="MMxIEz4GNXGrVT193HYA-0" />
        <mxCell id="MMxIEz4GNXGrVT193HYA-1" parent="MMxIEz4GNXGrVT193HYA-0" />
        <mxCell id="d6SBVQXbLfGid5248U36-2" style="edgeStyle=orthogonalEdgeStyle;rounded=0;orthogonalLoop=1;jettySize=auto;html=1;exitX=0.5;exitY=1;exitDx=0;exitDy=0;exitPerimeter=0;entryX=0.5;entryY=0;entryDx=0;entryDy=0;" edge="1" parent="MMxIEz4GNXGrVT193HYA-1" source="d6SBVQXbLfGid5248U36-0" target="d6SBVQXbLfGid5248U36-1">
          <mxGeometry relative="1" as="geometry" />
        </mxCell>
        <mxCell id="d6SBVQXbLfGid5248U36-0" value="&lt;div align=&quot;center&quot;&gt;mulai&lt;/div&gt;" style="strokeWidth=2;html=1;shape=mxgraph.flowchart.terminator;whiteSpace=wrap;align=center;" vertex="1" parent="MMxIEz4GNXGrVT193HYA-1">
          <mxGeometry x="360" y="20" width="100" height="40" as="geometry" />
        </mxCell>
        <mxCell id="d6SBVQXbLfGid5248U36-4" value="" style="edgeStyle=orthogonalEdgeStyle;rounded=0;orthogonalLoop=1;jettySize=auto;html=1;" edge="1" parent="MMxIEz4GNXGrVT193HYA-1" source="d6SBVQXbLfGid5248U36-1" target="d6SBVQXbLfGid5248U36-3">
          <mxGeometry relative="1" as="geometry" />
        </mxCell>
        <mxCell id="d6SBVQXbLfGid5248U36-6" value="" style="edgeStyle=orthogonalEdgeStyle;rounded=0;orthogonalLoop=1;jettySize=auto;html=1;" edge="1" parent="MMxIEz4GNXGrVT193HYA-1" source="d6SBVQXbLfGid5248U36-1" target="d6SBVQXbLfGid5248U36-5">
          <mxGeometry relative="1" as="geometry" />
        </mxCell>
        <mxCell id="d6SBVQXbLfGid5248U36-1" value="F = input suhu Farenheit" style="shape=parallelogram;html=1;strokeWidth=2;perimeter=parallelogramPerimeter;whiteSpace=wrap;rounded=1;arcSize=0;size=0.23;align=center;" vertex="1" parent="MMxIEz4GNXGrVT193HYA-1">
          <mxGeometry x="322.5" y="100" width="175" height="60" as="geometry" />
        </mxCell>
        <mxCell id="d6SBVQXbLfGid5248U36-12" style="edgeStyle=orthogonalEdgeStyle;rounded=0;orthogonalLoop=1;jettySize=auto;html=1;exitX=0.5;exitY=1;exitDx=0;exitDy=0;" edge="1" parent="MMxIEz4GNXGrVT193HYA-1" source="d6SBVQXbLfGid5248U36-3" target="d6SBVQXbLfGid5248U36-11">
          <mxGeometry relative="1" as="geometry" />
        </mxCell>
        <mxCell id="d6SBVQXbLfGid5248U36-3" value="&lt;div&gt;&lt;b&gt;konversi ke Reamur&lt;/b&gt;&lt;/div&gt;&lt;div&gt;(4/9) x ( &lt;b&gt;F &lt;/b&gt;– 32) &lt;/div&gt;" style="whiteSpace=wrap;html=1;rounded=1;strokeWidth=2;arcSize=0;" vertex="1" parent="MMxIEz4GNXGrVT193HYA-1">
          <mxGeometry x="500" y="180" width="120" height="60" as="geometry" />
        </mxCell>
        <mxCell id="d6SBVQXbLfGid5248U36-10" value="" style="edgeStyle=orthogonalEdgeStyle;rounded=0;orthogonalLoop=1;jettySize=auto;html=1;" edge="1" parent="MMxIEz4GNXGrVT193HYA-1" source="d6SBVQXbLfGid5248U36-5" target="d6SBVQXbLfGid5248U36-9">
          <mxGeometry relative="1" as="geometry" />
        </mxCell>
        <mxCell id="d6SBVQXbLfGid5248U36-5" value="&lt;b&gt;konversi ke Celcius&lt;/b&gt;&lt;br&gt;&lt;div align=&quot;center&quot;&gt;(&lt;b&gt; F&lt;/b&gt; − 32) × 5/9&lt;/div&gt;" style="whiteSpace=wrap;html=1;rounded=1;strokeWidth=2;arcSize=0;" vertex="1" parent="MMxIEz4GNXGrVT193HYA-1">
          <mxGeometry x="180" y="180" width="120" height="60" as="geometry" />
        </mxCell>
        <mxCell id="d6SBVQXbLfGid5248U36-14" style="edgeStyle=orthogonalEdgeStyle;rounded=0;orthogonalLoop=1;jettySize=auto;html=1;exitX=0.5;exitY=1;exitDx=0;exitDy=0;entryX=-0.01;entryY=0.675;entryDx=0;entryDy=0;entryPerimeter=0;" edge="1" parent="MMxIEz4GNXGrVT193HYA-1" source="d6SBVQXbLfGid5248U36-9" target="d6SBVQXbLfGid5248U36-13">
          <mxGeometry relative="1" as="geometry" />
        </mxCell>
        <mxCell id="d6SBVQXbLfGid5248U36-9" value="tampilkan hasil konversi Celcius" style="shape=parallelogram;perimeter=parallelogramPerimeter;whiteSpace=wrap;html=1;fixedSize=1;rounded=1;strokeWidth=2;arcSize=0;" vertex="1" parent="MMxIEz4GNXGrVT193HYA-1">
          <mxGeometry x="180" y="290" width="120" height="60" as="geometry" />
        </mxCell>
        <mxCell id="d6SBVQXbLfGid5248U36-15" style="edgeStyle=orthogonalEdgeStyle;rounded=0;orthogonalLoop=1;jettySize=auto;html=1;exitX=0.5;exitY=1;exitDx=0;exitDy=0;entryX=0.99;entryY=0.8;entryDx=0;entryDy=0;entryPerimeter=0;" edge="1" parent="MMxIEz4GNXGrVT193HYA-1" source="d6SBVQXbLfGid5248U36-11" target="d6SBVQXbLfGid5248U36-13">
          <mxGeometry relative="1" as="geometry" />
        </mxCell>
        <mxCell id="d6SBVQXbLfGid5248U36-11" value="tampilkan hasil konversi Reamur" style="shape=parallelogram;perimeter=parallelogramPerimeter;whiteSpace=wrap;html=1;fixedSize=1;rounded=1;strokeWidth=2;arcSize=0;" vertex="1" parent="MMxIEz4GNXGrVT193HYA-1">
          <mxGeometry x="500" y="290" width="120" height="60" as="geometry" />
        </mxCell>
        <mxCell id="d6SBVQXbLfGid5248U36-13" value="selesai" style="strokeWidth=2;html=1;shape=mxgraph.flowchart.terminator;whiteSpace=wrap;align=center;" vertex="1" parent="MMxIEz4GNXGrVT193HYA-1">
          <mxGeometry x="360" y="350" width="100" height="60" as="geometry" />
        </mxCell>
      </root>
    </mxGraphModel>
  </diagram>
</mxfile>
